<svg xmlns="http://www.w3.org/2000/svg" viewBox="0 0 512 512" role="img" aria-label="SpellControl mark">
  <defs>
    <linearGradient id="sparkfg" x1="0.2" y1="0" x2="0.8" y2="1">
      <stop offset="0" stop-color="#fcd34d"/>
      <stop offset="0.55" stop-color="#fb923c"/>
      <stop offset="1" stop-color="#fb7185"/>
    </linearGradient>
  </defs>
  <!-- scaled to ~0.78 around center so corners stay inside the adaptive-icon safe circle -->
  <g transform="translate(256 256) scale(0.78) translate(-256 -256)">
    <g fill="none" stroke="#8a7050" stroke-width="13">
      <rect x="120" y="120" width="78" height="78" rx="17"/>
      <rect x="217" y="120" width="78" height="78" rx="17"/>
      <rect x="314" y="120" width="78" height="78" rx="17"/>
      <rect x="120" y="217" width="78" height="78" rx="17"/>
      <rect x="314" y="217" width="78" height="78" rx="17"/>
      <rect x="120" y="314" width="78" height="78" rx="17"/>
      <rect x="217" y="314" width="78" height="78" rx="17"/>
      <rect x="314" y="314" width="78" height="78" rx="17"/>
    </g>
    <path d="M256 168
             C264 226 286 248 344 256
             C286 264 264 286 256 344
             C248 286 226 264 168 256
             C226 248 248 226 256 168 Z"
          fill="url(#sparkfg)"/>
  </g>
</svg>
